<svg width="40" height="39" viewBox="0 0 40 39" fill="none" xmlns="http://www.w3.org/2000/svg">
<path d="M12.8571 39H4.28571C1.91964 39 0 37.1283 0 34.8214V4.17857C0 1.87165 1.91964 0 4.28571 0H12.8571C15.2232 0 17.1429 1.87165 17.1429 4.17857V34.8214C17.1429 37.1283 15.2232 39 12.8571 39ZM40 34.8214V4.17857C40 1.87165 38.0804 0 35.7143 0H27.1429C24.7768 0 22.8571 1.87165 22.8571 4.17857V34.8214C22.8571 37.1283 24.7768 39 27.1429 39H35.7143C38.0804 39 40 37.1283 40 34.8214Z" fill="white"/>
</svg>
